# Blender 4.0.1
# www.blender.org
mtllib launchpad.mtl
o Launchpad
v -0.000000 0.707935 -5.078856
v -4.696817 0.707935 -1.666419
v -2.902792 0.707935 3.855022
v 2.902793 0.707935 3.855021
v 4.696817 0.707935 -1.666419
v -0.000000 0.707935 -5.571469
v -5.165320 0.707935 -1.818644
v -3.192343 0.707935 4.253553
v 3.192344 0.707935 4.253553
v 5.165319 0.707935 -1.818645
v -0.000000 0.707935 -7.732248
v -7.220343 0.707935 -2.486361
v -4.462417 0.707935 6.001661
v 4.462418 0.707935 6.001659
v 7.220342 0.707935 -2.486362
v -0.000000 0.707935 -8.209603
v -7.674335 0.707935 -2.633872
v -4.742999 0.707935 6.387850
v 4.743001 0.707935 6.387848
v 7.674335 0.707935 -2.633873
v -0.000000 -1.306395 -9.792654
v -9.179905 -1.306395 -3.123061
v -5.673493 -1.306395 7.668564
v 5.673494 -1.306395 7.668562
v 9.179905 -1.306395 -3.123063
v -7.220343 0.803086 -2.486361
v -0.000000 0.803086 -7.732248
v -4.462417 0.803086 6.001661
v 4.462418 0.803086 6.001659
v 7.220342 0.803086 -2.486362
v -7.481489 0.803086 -2.571213
v -0.000000 0.803086 -8.006833
v -4.623814 0.803086 6.223805
v 4.623816 0.803086 6.223804
v 7.481489 0.803086 -2.571214
v 7.674335 0.366436 -2.633873
v 4.743001 0.366436 6.387848
v -4.742999 0.366436 6.387850
v -7.674335 0.366436 -2.633872
v -0.000000 0.366436 -8.209603
v 4.640221 0.367578 6.246384
v -7.508034 0.367578 -2.579838
v 7.508033 0.367578 -2.579839
v -4.640220 0.367578 6.246386
v -0.000000 0.367578 -8.034743
vn -0.0000 1.0000 -0.0000
vn -0.0000 -0.0000 -1.0000
vn -0.0000 0.8650 0.5017
vn 0.9511 -0.0000 -0.3090
vn -0.4772 0.8650 0.1550
vn -0.5878 -0.0000 0.8090
vn 0.7248 0.6475 0.2355
vn -0.7248 0.6475 0.2355
vn 0.4479 0.6475 -0.6165
vn -0.0000 0.6475 0.7621
vn -0.4479 0.6475 -0.6165
vn 0.4772 0.8650 0.1550
vn -0.9511 -0.0000 -0.3090
vn -0.2949 0.8650 -0.4059
vn 0.5878 -0.0000 0.8090
vn 0.2949 0.8650 -0.4059
vn -0.5878 -0.0000 -0.8090
vn -0.0000 -0.0000 1.0000
vn 0.5878 -0.0000 -0.8090
vn -0.9511 -0.0000 0.3090
vn 0.9511 -0.0000 0.3090
vn 0.0047 -1.0000 0.0065
vn -0.0000 -1.0000 -0.0081
vn -0.0047 -1.0000 0.0065
vn 0.0077 -1.0000 -0.0025
vn -0.0077 -1.0000 -0.0025
vt 0.000000 0.000000
s 0
usemtl Launchpad_Dark
f 41/1/7 25/1/7 43/1/7
f 42/1/8 23/1/8 44/1/8
f 43/1/9 21/1/9 45/1/9
f 44/1/10 24/1/10 41/1/10
f 45/1/11 22/1/11 42/1/11
f 41/1/7 24/1/7 25/1/7
f 42/1/8 22/1/8 23/1/8
f 43/1/9 25/1/9 21/1/9
f 44/1/10 23/1/10 24/1/10
f 45/1/11 21/1/11 22/1/11
usemtl Launchpad_Lines
f 5/1/1 6/1/1 1/1/1
f 3/1/1 9/1/1 4/1/1
f 1/1/1 7/1/1 2/1/1
f 4/1/1 10/1/1 5/1/1
f 3/1/1 7/1/1 8/1/1
f 13/1/2 29/1/2 14/1/2
f 19/1/3 33/1/3 18/1/3
f 12/1/4 28/1/4 13/1/4
f 18/1/5 31/1/5 17/1/5
f 15/1/6 27/1/6 11/1/6
f 27/1/1 35/1/1 32/1/1
f 28/1/1 34/1/1 29/1/1
f 26/1/1 32/1/1 31/1/1
f 29/1/1 35/1/1 30/1/1
f 28/1/1 31/1/1 33/1/1
f 20/1/12 34/1/12 19/1/12
f 14/1/13 30/1/13 15/1/13
f 17/1/14 32/1/14 16/1/14
f 11/1/15 26/1/15 12/1/15
f 16/1/16 35/1/16 20/1/16
f 16/1/17 39/1/17 17/1/17
f 18/1/18 37/1/18 19/1/18
f 20/1/19 40/1/19 16/1/19
f 17/1/20 38/1/20 18/1/20
f 19/1/21 36/1/21 20/1/21
f 40/1/22 42/1/22 39/1/22
f 38/1/23 41/1/23 37/1/23
f 36/1/24 45/1/24 40/1/24
f 39/1/25 44/1/25 38/1/25
f 37/1/26 43/1/26 36/1/26
f 5/1/1 10/1/1 6/1/1
f 3/1/1 8/1/1 9/1/1
f 1/1/1 6/1/1 7/1/1
f 4/1/1 9/1/1 10/1/1
f 3/1/1 2/1/1 7/1/1
f 13/1/2 28/1/2 29/1/2
f 19/1/3 34/1/3 33/1/3
f 12/1/4 26/1/4 28/1/4
f 18/1/5 33/1/5 31/1/5
f 15/1/6 30/1/6 27/1/6
f 27/1/1 30/1/1 35/1/1
f 28/1/1 33/1/1 34/1/1
f 26/1/1 27/1/1 32/1/1
f 29/1/1 34/1/1 35/1/1
f 28/1/1 26/1/1 31/1/1
f 20/1/12 35/1/12 34/1/12
f 14/1/13 29/1/13 30/1/13
f 17/1/14 31/1/14 32/1/14
f 11/1/15 27/1/15 26/1/15
f 16/1/16 32/1/16 35/1/16
f 16/1/17 40/1/17 39/1/17
f 18/1/18 38/1/18 37/1/18
f 20/1/19 36/1/19 40/1/19
f 17/1/20 39/1/20 38/1/20
f 19/1/21 37/1/21 36/1/21
f 40/1/22 45/1/22 42/1/22
f 38/1/23 44/1/23 41/1/23
f 36/1/24 43/1/24 45/1/24
f 39/1/25 42/1/25 44/1/25
f 37/1/26 41/1/26 43/1/26
usemtl Launchpad_Light
f 9/1/1 15/1/1 10/1/1
f 7/1/1 13/1/1 8/1/1
f 10/1/1 11/1/1 6/1/1
f 8/1/1 14/1/1 9/1/1
f 7/1/1 11/1/1 12/1/1
f 3/1/1 5/1/1 1/1/1
f 9/1/1 14/1/1 15/1/1
f 7/1/1 12/1/1 13/1/1
f 10/1/1 15/1/1 11/1/1
f 8/1/1 13/1/1 14/1/1
f 7/1/1 6/1/1 11/1/1
f 1/1/1 2/1/1 3/1/1
f 3/1/1 4/1/1 5/1/1
